<?xml version="1.0" encoding="utf-8"?>
<!-- Generator: Adobe Illustrator 18.1.0, SVG Export Plug-In . SVG Version: 6.00 Build 0)  -->
<svg version="1.1" id="Layer_1" xmlns="http://www.w3.org/2000/svg" xmlns:xlink="http://www.w3.org/1999/xlink" x="0px" y="0px"
	 viewBox="0 0 576 576" enable-background="new 0 0 576 576" xml:space="preserve">
<g>
	<g>
		<g>
			<path d="M392.5,56.3c74.1,0,134.1,46.6,134.1,104c0,19.4-6.9,37.7-18.9,53.3V516H80.3V226.7c-19.3-18-30.9-41.2-30.9-66.4
				c0-57.4,60.1-104,134.2-104c42.2,0,79.9,15.2,104.5,38.8C312.7,71.4,350.3,56.3,392.5,56.3 M392.5,46.3
				c-39.8,0-77.3,12.8-104.4,35.4c-27.1-22.6-64.7-35.4-104.5-35.4c-38,0-73.9,11.6-101,32.6c-13.4,10.4-24,22.6-31.4,36.2
				c-7.8,14.3-11.8,29.5-11.8,45.3c0,25.7,10.9,50.6,30.9,70.6V516c0,5.5,4.5,10,10,10h427.4c5.5,0,10-4.5,10-10V216.9
				c12.4-17.2,18.9-36.7,18.9-56.6c0-15.7-4-31-11.8-45.3c-7.4-13.6-18-25.8-31.4-36.2C466.4,57.8,430.5,46.3,392.5,46.3L392.5,46.3
				z"/>
		</g>
	</g>
	<g>
		<path d="M193.8,93.5c17.4,0,34.7,4.5,51.5,13.4c13.8,7.3,27,17.7,37.2,29.1c1.8,2.1,4.5,3.3,7.2,3.4c0.1,0,0.2,0,0.2,0
			c2.7,0,5.3-1.1,7.1-3c18.1-18.5,52.3-40,89.1-40c28.3,0,54.8,7.3,74.6,20.6c18.6,12.4,28.8,28.6,28.8,45.4
			c0,10-3.7,25.1-21.2,39.7c-2.3,1.9-3.6,4.7-3.6,7.7v264.6H123.2V224.7c0-3.3-1.7-6.4-4.4-8.3c-17-11.5-28.5-38.7-28.5-57
			c0-16.8,10.2-33,28.8-45.4C138.9,100.8,165.4,93.5,193.8,93.5 M193.8,83.5c-62.7,0-113.5,34-113.5,75.9
			c0,20.9,12.5,51.5,32.9,65.2v259.7h361.5V209.8c15.5-13,24.8-29.4,24.8-47.4c0-42-50.8-76-113.4-76c-39.6,0-76,22.4-96.2,43
			C270.1,107.2,235.2,83.5,193.8,83.5L193.8,83.5z"/>
	</g>
</g>
</svg>
