<?xml version="1.0" encoding="utf-8"?>
<!-- Generator: Adobe Illustrator 18.1.0, SVG Export Plug-In . SVG Version: 6.00 Build 0)  -->
<svg version="1.1" id="Layer_1" xmlns="http://www.w3.org/2000/svg" xmlns:xlink="http://www.w3.org/1999/xlink" x="0px" y="0px"
	 viewBox="0 0 576 576" enable-background="new 0 0 576 576" xml:space="preserve">
<g>
	<path stroke="#000000" stroke-width="2" stroke-linecap="round" stroke-linejoin="round" stroke-miterlimit="10" d="M74,479.7
		c-6.1,0.2-11.9-0.7-17.2-3.2c-10-4.7-15.6-13-17.9-23.5c-3-13.2-2.7-26.4,2-39.2c5.1-13.7,15.4-21,29.7-23
		c9.6-1.3,19.1-0.1,28.4,2.5c1.3,0.4,2.2,0.3,3.3-0.5c17.2-11.8,33.2-25,49-38.5c3.4-2.9,6.9-5.9,10.2-8.9c0.5-0.4,0.9-1.3,0.8-2
		c-3.3-21.9,2.1-41.9,13.6-60.4c6.8-11,15.4-20.5,24.9-29.1c0.9-0.8,1.3-1.5,1.1-2.7c-2.5-16.4-2.7-32.9-1.2-49.4
		c1.8-19.9,6.5-39.1,14.7-57.4c15-33.3,39.4-57.5,71.7-74.1c23.3-11.9,48-19.1,73.9-22.2c30-3.5,59.2-0.5,86.8,12.4
		c34.7,16.2,58.4,42.7,71.4,78.6c7.7,21.2,10,43.2,8.2,65.7c-2.3,27.2-10.9,52.4-23.3,76.5c-6.9,13.4-15.1,25.9-25.4,37
		c-18.5,19.9-40.8,34-66.3,43c-19.3,6.8-39.3,10.1-59.7,10.9c-12.1,0.5-24.2,0-36.2-1.2c-1.2-0.1-2,0.1-3,1.1
		c-13.5,14-28.8,25.3-47.2,32c-14.1,5.2-28.6,6.7-43.5,3.6c-0.7-0.2-1.9,0.2-2.4,0.8c-18.3,18.2-36.6,36.5-54.9,54.8
		c-0.5,0.5-0.8,1.5-0.7,2.2c1.7,16.7-2.1,32.1-12.8,45.1c-11.1,13.4-25.6,16.3-41.8,11.6c-20.4-5.9-31.5-20.2-35.8-40.5
		C74.2,481,74.1,480.4,74,479.7z M342.8,362.9c19.4-0.4,38.6-2.6,57.3-8c29-8.5,53.9-23.6,74.1-46.3c8.5-9.5,15.1-20.3,21-31.6
		c13.5-25.8,22.1-52.8,22.9-82c0.6-23.5-3.6-46-14.3-67.1c-17.7-35-45.9-57-83.8-66.8c-20.1-5.2-40.6-5.6-61.1-2.9
		c-24.5,3.3-47.9,10.4-69.8,22.1c-30.1,16-52.6,39.3-65.9,70.9c-13.8,32.7-16.5,66.7-11.1,101.6c0.4,2.8-0.3,4.7-2.3,6.5
		c-9.6,8.3-18.1,17.5-25,28.2c-12.3,19.2-17,39.9-11.1,62.3c4,15.1,11.2,28,25,36.9c21.9,14.2,44.6,16.8,68.7,6.5
		c15.6-6.7,28.9-16.8,40.3-29.3c2.2-2.4,4.5-3.2,7.7-2.9C324.4,361.7,333.6,362.2,342.8,362.9z M165.2,355.2
		c-2.5,2.1-4.4,3.8-6.4,5.5c-17.3,14.8-34.8,29.2-53.7,41.9c-2.1,1.4-4.1,1.7-6.5,0.9c-8.2-2.7-16.6-4-25.3-3.2
		c-12.7,1.2-21.2,8.1-24.5,20.4c-2.5,9.2-2.6,18.5-1,27.8c1,5.9,3.2,11.4,7.8,15.6c5.9,5.4,13,6.5,20.6,5.6c5.1-0.5,6.6,0.7,7.1,5.7
		c0,0.4,0.1,0.8,0.1,1.2c2.2,16.5,11.6,32.2,31.9,36.8c9.7,2.2,18.6,0.8,26.2-6.1c4-3.7,7-8.1,9.2-13.1c4.1-9.7,6.1-19.7,3.7-30.3
		c-0.5-2.2,0.2-3.8,1.8-5.4c17.6-17.6,35.3-35.2,52.9-52.8c0.5-0.5,1.2-0.8,2.2-1.4C188.2,394.6,171.3,380.2,165.2,355.2z"/>
	<path stroke="#000000" stroke-width="2" stroke-linecap="round" stroke-linejoin="round" stroke-miterlimit="10" d="M417.2,283.3
		c0-6.8,5.5-12.2,12.3-12.2c6.8,0,12.3,5.5,12.3,12.3c0,6.8-5.5,12.3-12.5,12.3C422.5,295.6,417.2,290.2,417.2,283.3z"/>
	<path stroke="#000000" stroke-width="2" stroke-linecap="round" stroke-linejoin="round" stroke-miterlimit="10" d="M382.6,316.6
		c0,6.9-5.4,12.3-12.2,12.3c-6.9,0-12.4-5.6-12.4-12.4c0.1-6.8,5.6-12.3,12.4-12.2C377.2,304.3,382.6,309.7,382.6,316.6z"/>
	<path stroke="#000000" stroke-width="2" stroke-linecap="round" stroke-linejoin="round" stroke-miterlimit="10" d="M382.6,258.8
		c0,6.9-5.3,12.3-12.1,12.3c-7,0-12.5-5.4-12.4-12.3c0-6.8,5.6-12.3,12.3-12.3C377.1,246.5,382.6,252,382.6,258.8z"/>
</g>
</svg>
