<?xml version="1.0" encoding="utf-8"?>
<!-- Generator: Adobe Illustrator 18.1.0, SVG Export Plug-In . SVG Version: 6.00 Build 0)  -->
<svg version="1.1" id="Layer_1" xmlns="http://www.w3.org/2000/svg" xmlns:xlink="http://www.w3.org/1999/xlink" x="0px" y="0px"
	 viewBox="0 0 576 576" enable-background="new 0 0 576 576" xml:space="preserve">
<g>
	<path d="M120.8,177c1.8-34.3,29-58.7,60.2-66c13.5-3.1,27-3.3,40.8-0.6c0.3-0.4,0.6-0.8,0.8-1.2c6.1-11.9,14.9-21.2,26-28.4
		c1.4-0.9,2-1.8,2-3.6c0-22.9,17.3-42.3,39.7-44.6c23.3-2.4,44.2,12.7,49,35.5c0.3,1.3,0.7,2.6,0.6,3.9c-0.3,3.5,1.3,5.4,4.3,7.1
		c12.9,7.5,23,17.8,29.3,31.5c0.8,1.7,2,1.5,3.3,1.3c15.2-1.6,30,0,44.1,5.7c21,8.4,36.8,22.3,44.6,44c1.8,5,2.4,10.5,3.4,15.8
		c0.3,1.5,0.6,2,2.1,2.3c16.5,2.8,31.4,9.3,43.9,20.6c12.1,10.9,19.9,24.2,22.1,40.6c2.5,18.9-3,35.6-15.2,50.1
		c-8.4,10-18.8,17.1-30.8,22c-1.6,0.7-2.4,1.5-2.8,3.3c-10.4,47.9-20.9,95.7-31.3,143.6c-5.2,23.8-10.4,47.6-15.6,71.4
		c-0.9,4-2.3,5.2-6.4,5.2c-91.5,0-183,0-274.5,0c-4,0-5.3-1.1-6.3-5.2c-8.1-33.4-16.1-66.8-24.2-100.2
		c-9.1-37.8-18.3-75.7-27.4-113.5c-0.5-2.2-1.9-2.4-3.4-2.9c-18.8-5.7-34.4-16-45.1-32.7c-17.4-27.2-12-61.6,12.9-83.3
		c14.3-12.5,31.1-19.2,50-21C118.2,177.3,119.5,177.1,120.8,177z M252.2,90.6c-8,4.3-17.7,15.9-22.1,26.3c-1.8,4.1-3.4,4.9-7.8,3.9
		c-23.2-5.1-45.2-2.1-64.9,11.5c-16.7,11.5-26.5,27.1-26.4,48c0,5.2-1.5,6.6-6.7,6.7c-18.4,0.5-35.1,5.9-49.2,17.9
		c-13,11-20.8,24.9-21,42.2c-0.2,17.8,7.5,32.2,20.9,43.2c21.8,17.9,46.7,21.6,73.5,14.8c4.5-1.1,5.9-0.7,8.2,3.2
		c7,11.6,16.8,19.9,28.9,25.6c16.2,7.7,33.3,9.7,50.8,6.4c17.4-3.2,32.2-11.2,43.7-24.9c3.1-3.7,5.6-3.6,9.2-0.6
		c5,4.1,10,8.4,15.6,11.5c16.5,9.2,34.2,11.8,52.8,8.7c21.8-3.7,39.4-14.1,51.1-33.4c1.8-2.9,4.4-3.6,7.5-1.9
		c15.5,8.5,32,11.3,49.4,9.3c16.9-1.9,32-8.2,44.3-20.2c10.2-9.8,16.5-21.7,17.5-36c1.1-16.6-4.9-30.7-16.4-42.4
		c-12.5-12.7-28.1-19.4-45.6-21.4c-4.9-0.6-6.2-2-6.4-7c-0.1-3.2-0.2-6.4-0.8-9.4c-3.6-18.2-14.4-31.2-30.1-40.4
		c-16.7-9.8-34.9-12.7-53.9-9.8c-5.2,0.8-6.4,0.2-8.4-4.6c-5.4-13-14.6-22.7-26.5-30c-6.4,20.1-19.5,32.6-40.7,34
		C275.8,123.3,260.6,111.6,252.2,90.6z M113,317.6c0.2,0.8,0.3,1.3,0.4,1.8c3.4,13.9,6.7,27.8,10.1,41.7
		c13,54.1,26.1,108.2,39.1,162.3c0.6,2.4,1.6,3,4,3c45.3-0.1,90.7-0.1,136-0.1c42.2,0,84.5,0,126.7,0.1c2.3,0,3.1-0.7,3.6-2.9
		c2.3-11.3,4.8-22.6,7.3-33.9c11.7-53.7,23.5-107.4,35.3-161.2c0.8-3.6,1.5-7.2,2.3-11c-31.6,3.7-33.6,3.5-62.4-6.7
		c-26.4,40.4-91.8,47.9-130.1,14.4c-19.3,19.8-43.2,28.2-70.4,26.5c-27.3-1.8-49.8-13.2-65.8-36.1
		C137.3,318.5,125.4,319.3,113,317.6z M295.5,42.4c-19.1-0.1-34.9,15.5-35,34.7c-0.1,18.9,15.8,34.9,34.8,34.9
		c19.2,0.1,35-15.9,34.9-35.3C330.2,58,314.5,42.5,295.5,42.4z"/>
</g>
</svg>
