<?xml version="1.0" encoding="utf-8"?>
<!-- Generator: Adobe Illustrator 18.1.0, SVG Export Plug-In . SVG Version: 6.00 Build 0)  -->
<svg version="1.1" id="Layer_1" xmlns="http://www.w3.org/2000/svg" xmlns:xlink="http://www.w3.org/1999/xlink" x="0px" y="0px"
	 viewBox="0 0 576 576" enable-background="new 0 0 576 576" xml:space="preserve">
<g>
	<path d="M132.7,294.7c-21.7-3.2-36.9-14.1-41.9-36.3c-4.5-20.2,1.9-36.4,19.6-48.5c-0.7-0.4-1.3-0.7-1.7-1.1
		C98,199.2,93.5,187,95.7,173c1.6-10.6,7.7-18.5,18.1-22.5c0.7-0.3,1.5-0.5,1.7-0.6c-0.4-6.4-1.3-12.5-1-18.5
		c0.8-15.4,8.8-26.4,22.3-33.3c5.9-3,12.3-5,19.1-7.6c0-2.8-0.4-6.3,0.1-9.7c1.7-13.9,9.7-23.9,21.4-30.8c5.5-3.3,11.5-6.1,17.7-7.9
		c7.8-2.3,15.5-0.1,22.8,3.1c0.7,0.3,1.3,0.7,2.1,1.1c0.8-0.8,1.6-1.7,2.3-2.5c10.4-10.9,23.3-13.9,37.6-10.8
		c6.1,1.3,11.9,3.9,17.8,6.3c1.8,0.7,3,0.7,4.7-0.2c9.6-5.3,19.8-8.2,30.9-6.5c6,0.9,11.3,3.4,16.2,7.1c0.8,0.6,1.6,1.2,2,1.5
		c5-3.1,9.6-6.5,14.7-9c22.6-11.1,43.5-1.9,56.3,16.2c5.4,7.5,8.5,16,9.1,25.4c0,0.6,0.2,1.2,0.3,2c18.4,0.4,32.2,8.1,40.1,25.2
		c7.7,16.6,6.2,32.5-4,48c10.9,5,17.2,13.4,18.3,25.3c1.1,11.6-2.3,21.7-10.9,30c21.9,14.8,26.9,35.3,20.5,59.7
		c-7.9,16.2-20.3,26.3-38.8,28.6c3.8,12-0.2,22.4-6.4,32.4c-6.5,10.4-15.6,16.6-28.6,16.2c-1.8,7.9-3.7,15.7-5.5,23.6
		c-7.8,34.7-15.4,69.4-23.4,104.1c-4.6,19.9-12.5,38.4-26,54c-17.2,20-39,30.3-65.5,30.1c-30.8-0.2-54-14.4-70.9-39.6
		c-11.9-17.7-19.8-37.2-25.2-57.7c-3.9-15-6.4-30.3-9.9-45.3c-5.4-23-11.2-46-16.8-69c-0.4-1.5-1.1-2.4-2.7-2.9
		c-6.9-2.3-13.2-5.8-18.1-11.3c-7.5-8.6-8.7-18.5-5.8-29.2c0.2-0.9,0.5-1.7,0.7-2.6C132.8,295.2,132.7,295.1,132.7,294.7z
		 M289.3,541.7c1.1-0.1,2-0.1,2.9-0.2c17.5-2.4,32.1-10.2,44.1-23.1c13-14,20.8-30.9,25.3-49.2c5.8-24.1,10.9-48.3,16.4-72.4
		c4.7-20.7,9.4-41.4,14.2-62.2c1.1-4.7,3.4-6.2,8-5c6.1,1.5,11.3-0.2,15.7-4.3c5.4-4.9,8.7-11.2,10.8-18.1c1.8-5.8,1.1-13-5.7-17
		c-2.3-1.4-2.9-4-2-6.4c1-2.5,3.3-3.8,6.1-3.3c1.2,0.2,2.3,0.5,3.4,0.7c16.7,2.9,34.8-9.3,37.9-25.9c2.4-13,0.5-25-8.9-35
		c-4.6-4.9-10.1-8.3-16.4-10.7c-2.5-0.9-3.7-2.7-3.7-5.4c0.1-2.6,1.5-4.3,3.8-5c7.5-2,11.4-7.5,13.1-14.5c3-12.2-1.2-24.5-16.2-27.3
		c-2.5-0.5-4.8-1.2-5.6-3.9c-0.8-2.6,0.4-4.6,2.2-6.5c12.5-13.2,14.2-31.2,4.3-46.4c-4.2-6.5-10-11.1-17.5-12.6
		c-4.8-1-9.8-1-14.7-0.8c-4.8,0.2-7.4-2.1-6.9-6.8c0.3-2.1,0.6-4.3,0.4-6.4c-1.5-13.3-7.9-23.6-19.1-30.9c-7.6-5-15.8-6.2-24.6-3.6
		c-8,2.4-14.6,6.9-20.5,12.6c-3.8,3.6-6.3,3.6-9.8-0.2c-7.5-8.1-16.7-11-27.2-7.9c-5.1,1.5-10.1,3.9-14.8,6.4
		c-3.1,1.7-5.4,1.8-8.5,0.3c-5.7-2.7-11.5-5.4-17.5-7c-13.5-3.5-25.3,1.2-31.8,11.8c-3,4.9-5.7,5.3-10.2,1.8
		c-5.5-4.4-12.1-6.2-18.8-4.7c-7.4,1.6-14.2,5.3-20,10.3c-9.3,7.9-13.3,17.7-10.4,29.9c1.2,5.3-0.3,7.3-5.5,8.6
		c-6.1,1.5-12.3,3-18,5.5c-9.7,4.2-16.4,11.3-18.3,22.2c-1.3,7.6,0,15.1,2.7,22.3c2,5.3,0.1,8.2-5.4,8.6
		c-8.4,0.5-15.6,7.2-16.4,15.3c-1.3,13.1,4.4,24,16.1,30.2c2.4,1.3,4.2,2.7,4.1,5.7c-0.1,3-2.2,4.3-4.6,5.3
		c-6.3,2.7-11.4,6.8-15.6,12.2c-11.1,14-6.8,44,15.9,52.4c5.8,2.1,11.8,3.3,18,3.3c5.4-0.1,7.8,3.7,5.6,8.7
		c-1.3,2.9-2.5,5.8-3.3,8.8c-2.5,9.6,0.3,17.1,8.7,22.3c3.5,2.2,7.6,3.7,11.6,5c2.8,0.9,4.6,2.3,5.3,5.1
		c5.3,20.9,10.8,41.6,15.7,62.6c3.5,15,5.8,30.3,9.3,45.2c5,21.2,12.1,41.7,23.5,60.4c8.8,14.3,19.7,26.4,35.3,33.6
		c8.4,3.8,17.2,5.7,26.5,5.9c0.1-0.7,0.2-1.2,0.2-1.8c0-26.4,0-52.9,0.1-79.3c0-2.6-0.9-4.3-2.9-5.9c-12.3-10.2-24.5-20.5-36.6-30.8
		c-1.1-0.9-2.1-2-2.7-3.3c-1-2.2-0.1-4.9,1.8-6.3c2.2-1.6,4.7-1.4,7.2,0.6c9.2,7.7,18.3,15.4,27.5,23.2c1.7,1.5,3.5,2.9,5.5,4.6
		c0.1-0.9,0.1-1.3,0.1-1.6c0-23.6-0.1-47.3,0-70.9c0-1.7-0.5-2.8-1.8-3.9c-9.6-8-19.2-16.1-28.8-24.2c-5-4.2-10-8.3-14.9-12.6
		c-2.1-1.8-2.5-4.5-1.4-6.6c1.3-2.3,3.4-3.5,5.9-2.8c1.6,0.4,3,1.6,4.3,2.6c11.6,9.7,23.2,19.5,34.8,29.2c0.5,0.4,1.1,0.7,1.8,1.2
		c0-22.1,0-43.7-0.1-65.3c0-0.9-0.9-2.1-1.7-2.8c-7.3-6.3-14.7-12.5-22.1-18.7c-7-5.9-14.1-11.9-21.1-17.7c-2-1.7-3.1-3.9-2-6.2
		c0.7-1.5,2.4-2.9,3.9-3.5c2.1-0.9,3.9,0.4,5.6,1.8c11.7,9.9,23.4,19.8,35.2,29.6c0.6,0.5,1.3,1,2.4,1.9c0-5.3,0-10,0-14.7
		c0-13.4,0-26.9,0-40.3c0-3.9,2.1-6.2,5.6-6.1c3.3,0.1,5.2,2.3,5.2,6.2c0,18.5,0,37,0,55.5c0,0.9,0,1.9,0,3.3c1.2-1,2-1.6,2.7-2.2
		c6.6-5.6,13.2-11.2,19.7-16.9c5.3-4.6,10.7-9.2,16-13.7c2.2-1.9,5-2.1,7-0.7c2,1.3,2.9,3.9,2,6.2c-0.5,1.2-1.4,2.3-2.4,3.1
		c-14.4,12.4-28.9,24.7-43.3,37.2c-0.9,0.8-1.7,2.4-1.7,3.6c-0.1,20.7-0.1,41.5-0.1,62.2c0,0.6,0.1,1.3,0.3,2.3
		c5.6-4.7,11-9.2,16.3-13.7c6.1-5.2,12.3-10.4,18.4-15.5c2.5-2.1,5.8-1.8,7.7,0.5c2,2.3,1.7,5.5-0.7,7.7c-0.3,0.3-0.7,0.6-1,0.9
		c-12.7,10.7-25.3,21.4-38.1,32c-2.2,1.8-2.9,3.6-2.9,6.4c0.1,22.4,0.1,44.7,0.1,67.1c0,0.9,0,1.9,0,3.3c1.2-1,1.9-1.6,2.5-2.2
		c10.5-9.5,21-19,31.5-28.5c3.1-2.8,6.3-3,8.6-0.5c2.3,2.5,1.8,5.7-1.2,8.5c-13.1,11.9-26.2,23.8-39.3,35.6
		c-1.5,1.3-2.1,2.6-2.1,4.6c0.1,25,0,50,0,74.9C289.3,539.7,289.3,540.6,289.3,541.7z"/>
</g>
</svg>
