<?xml version="1.0" encoding="utf-8"?>
<!-- Generator: Adobe Illustrator 18.1.0, SVG Export Plug-In . SVG Version: 6.00 Build 0)  -->
<svg version="1.1" id="Layer_1" xmlns="http://www.w3.org/2000/svg" xmlns:xlink="http://www.w3.org/1999/xlink" x="0px" y="0px"
	 viewBox="0 0 576 576" enable-background="new 0 0 576 576" xml:space="preserve">
<path stroke="#000000" stroke-linejoin="round" stroke-miterlimit="10" d="M289.9,20.7c59,0,114.7,13.9,167.6,39.5
	c22.5,10.9,43.9,23.7,64.3,38.1c1.4,1,3.3,2.2,3.7,3.7c0.5,1.8,0.2,4.3-0.7,6c-9.9,19.3-19.9,38.6-29.9,57.8
	c-20.6,39.7-41.2,79.5-61.9,119.2c-19.6,37.7-39.1,75.3-58.7,113c-12.8,24.7-25.5,49.4-38.3,74c-14.1,27.2-28.3,54.4-42.4,81.6
	c-1.2,2.2-2.6,3.8-5.3,3.8c-2.7,0-4.2-1.6-5.3-3.8c-35.1-67.7-70.3-135.5-105.4-203.2c-18.6-35.9-37.3-71.8-56-107.8
	c-23.4-45-46.8-90.1-70.2-135.1c-1.9-3.7-1.4-5.9,2.4-8.7C69.5,86.9,86.5,76.7,104,67.5c34.7-18,71.1-31.1,109.4-39.1
	C236.5,23.7,264.6,20.7,289.9,20.7z M134.3,243.8c51.4,98.9,102.6,197.5,153.9,296.4c0.5-0.8,0.8-1.3,1-1.7
	c11.5-22.2,23.1-44.4,34.5-66.6c0.4-0.8,0.2-2.3-0.3-3c-7.7-11-10.5-23-8.4-36.3c3.4-21.6,22.3-39.9,47.7-40c1.9,0,2.6-0.6,3.4-2.1
	c16.4-31.7,32.8-63.3,49.3-94.9c23.3-44.8,46.5-89.6,69.8-134.4c3.1-6,6.2-12,9.3-18c-0.4-0.3-0.7-0.4-0.9-0.5
	c-37.6-20.4-76.8-36.5-118.4-46.8C347.7,89,320,85,291.8,84.2c-28.4-0.8-56.5,1.8-84.3,7.9c-38.8,8.5-75,23.1-108.6,44.3
	c-5.1,3.2-10,6.8-15.1,10.2c3.8,7.4,7.5,14.3,11.2,21.5c15.6-20.8,40.8-24.7,60.3-15.4c19.6,9.5,30.3,30.8,26,52.9
	C177,226.7,158.2,243.6,134.3,243.8z M79,136.6c2.4-1.6,4.7-3.3,7.2-5C144.9,92.7,209.8,73.8,280,73.3c14.3-0.1,28.8,0.9,43,2.4
	c14.1,1.5,28.3,3.7,42.2,6.7c40.4,8.5,78.8,22.9,115.6,41.3c6.2,3.1,12.3,6.3,18.7,9.6c4.8-9.2,9.5-18.3,14.2-27.3
	c-0.5-0.4-0.8-0.6-1.1-0.8c-28.4-19.6-58.4-36-90.5-48.5C380.3,40.3,337,31.7,292.1,31.4c-31.5-0.2-62.4,3.6-92.9,11.4
	c-48.4,12.3-93.2,32.3-134.1,61c-0.8,0.6-1.7,1.3-2.5,1.9c5.4,10.3,10.6,20.4,15.8,30.4C78.5,136.3,78.7,136.4,79,136.6z
	 M171.5,195.9c-0.4-2.8-0.6-5.7-1.2-8.4c-4.1-18.8-22.9-31.3-41.4-28.3c-12,2-20.9,8.2-26.9,18.7c-0.5,0.8-0.6,2.3-0.2,3.1
	c8.5,16.6,17.1,33.2,25.8,49.7c0.4,0.8,1.5,1.6,2.3,1.7c3,0.2,6.1,0.4,9,0C157.5,230,171.1,214.6,171.5,195.9z M359.1,403.9
	c-12.3-0.1-25.7,9.8-31.1,22.6c-4.9,11.6-2.7,25.8,2.6,32.3C340.1,440.5,349.5,422.2,359.1,403.9z"/>
<path stroke="#000000" stroke-linejoin="round" stroke-miterlimit="10" d="M316.1,186.4c-0.4-32.1,25.9-60.5,60.6-60.5
	c33.5,0,60.4,27.2,60.4,60.8c0,33.7-27.2,60.7-61.4,60.4C341.4,246.7,315.6,218.1,316.1,186.4z M376.7,236
	c26.3,0.5,49.3-21.4,49.6-48.9c0.3-26.7-21-50.2-49.7-50.3c-27.2-0.1-49.8,22.4-49.7,49.6C327.1,216.1,351.6,236.6,376.7,236z"/>
<path stroke="#000000" stroke-linejoin="round" stroke-miterlimit="10" d="M258,259.5c31.1,0,56.1,25.1,56,56.4
	c-0.1,29.7-23.7,55.7-56.1,55.6c-31.5-0.1-55.8-24.8-55.8-55.9C202,282.5,228.7,259.5,258,259.5z M213,315.5c0,24.9,20,45,44.8,45.1
	c24.9,0.1,45.2-20,45.3-44.9c0-24.8-20.2-45.1-44.9-45.1C233.2,270.4,213,290.5,213,315.5z"/>
</svg>
