<?xml version="1.0" encoding="utf-8"?>
<!-- Generator: Adobe Illustrator 18.1.0, SVG Export Plug-In . SVG Version: 6.00 Build 0)  -->
<svg version="1.1" id="Layer_1" xmlns="http://www.w3.org/2000/svg" xmlns:xlink="http://www.w3.org/1999/xlink" x="0px" y="0px"
	 viewBox="0 0 576 576" enable-background="new 0 0 576 576" xml:space="preserve">
<g>
	<path d="M210.9,159.3c12.5,0,25.6,0.8,39.1,2.4c0.2,0,0.3,0,0.5,0c0.5,0,48.1,3.4,115.7,5c33.9,0.8,63.4,5.8,87.9,14.7
		c25,9.1,43.9,22.2,56.1,38.8c0.5,0.7,1.1,1.3,1.8,1.8c0.3,0.3,31,25.6,29.5,67.2c-0.7,20.3-8.7,41.3-23.1,60.7
		c-13.6,18.4-32.2,34.1-52.3,44.3c-0.3,0.2-0.6,0.3-0.9,0.5c-0.5,0.3-45.9,29.1-81.6,31.1c-1.1,0.1-2.2,0.3-3.2,0.7
		c-0.3,0.1-27.6,11-63,11c-10.3,0-20.4-0.9-30-2.7c-0.6-0.1-1.2-0.2-1.9-0.2c-0.1,0-0.3,0-0.4,0c0,0-3.9,0.2-10.6,0.2
		c-18.6,0-67.1-1.4-115.8-14.2c-26.5-7-49.5-16.4-68.3-28c-22.1-13.6-38.6-30.3-49.2-49.7c0-0.1,0-0.1-0.1-0.1
		c-0.3-0.6-4.3-8.6-4.5-21.4c-0.2-17.8,6.8-36.2,20.8-54.6c2.1-2.6,8.2-12.5,13.6-41.5c1.8-9.7,12.1-26.1,35.1-40.5
		C124.8,173.3,158.3,159.3,210.9,159.3C210.9,159.3,210.9,159.3,210.9,159.3 M210.9,149.3c-98.9,0-144.9,47.9-149.8,74.5
		c-5.5,29.9-11.6,37.1-11.6,37.1c-38.2,49.9-17.2,87-17.2,87C81.6,438.5,232.2,445,274.4,445c7.1,0,11.1-0.2,11.1-0.2
		c11,2.1,21.7,2.9,31.8,2.9c38,0,66.8-11.8,66.8-11.8c38.8-2.2,86.4-32.7,86.4-32.7c42.7-21.6,79.2-66.5,80.9-113.6
		c1.7-47.1-33.2-75.3-33.2-75.3c-27.7-37.7-83.7-56-151.8-57.6c-68.1-1.7-115.2-5-115.2-5C236.8,150.1,223.4,149.3,210.9,149.3
		L210.9,149.3z"/>
</g>
<circle cx="150.6" cy="380.8" r="10.3"/>
<circle cx="105.8" cy="350.9" r="10.3"/>
<circle cx="145" cy="327.2" r="10.3"/>
<g>
	<circle cx="188.5" cy="360.3" r="10.3"/>
</g>
</svg>
